<?xml version="1.0" encoding="UTF-8" standalone="no"?>
<svg width="135px" height="113px" viewBox="0 0 135 113" version="1.1" xmlns="http://www.w3.org/2000/svg" xmlns:xlink="http://www.w3.org/1999/xlink" xmlns:sketch="http://www.bohemiancoding.com/sketch/ns">
    <!-- Generator: Sketch 3.3 (11970) - http://www.bohemiancoding.com/sketch -->
    <title>accessibility</title>
    <desc>Created with Sketch.</desc>
    <defs></defs>
    <g id="Page-1" stroke="none" stroke-width="1" fill="none" fill-rule="evenodd" sketch:type="MSPage">
        <g id="accessibility" sketch:type="MSLayerGroup" transform="translate(1.000000, 2.000000)" stroke="#45D292">
            <path d="M52.1751998,58.1373002 L52.1751998,74.3082554 L38.072753,74.3082554 C36.4168433,74.3082554 34.0803608,75.1998281 32.8411322,76.3112451 L16.9822491,90.5344738 C15.7488144,91.6406944 13.4013601,92.5374635 11.758121,92.5374635 L-14.1464777,92.5374635 C-15.2530127,92.5374635 -16.1500365,91.6503426 -16.1500365,90.5362758 L-16.1500365,88.1585853 C-16.1500365,87.0533598 -15.2603818,86.1573976 -14.1563763,86.1573976 L12.5257718,86.1573976 L19.2517433,80.0125984 C19.6623727,79.6374502 19.6623034,79.0281731 19.2532833,78.6532933 L18.021914,77.5247044 C17.612135,77.149129 16.9483601,77.1561331 16.553961,77.5266062 L11.014574,82.7299496 C10.2129435,83.4829497 8.92604039,83.4563237 8.15400252,82.6842858 L7.00713901,81.5374223 C6.22891951,80.7592028 6.23537893,79.4938988 7.01357679,78.7192401 L25.5612953,60.2558737 C26.7366967,59.0858179 29.0408806,58.1373002 30.6919694,58.1373002 L52.1751998,58.1373002 Z" id="Path-805" stroke-width="2.79999995" sketch:type="MSShapeGroup" transform="translate(18.012582, 75.337382) rotate(-270.000000) translate(-18.012582, -75.337382) "></path>
            <path d="M149.1752,58.1373002 L149.1752,74.3082554 L135.072753,74.3082554 C133.416843,74.3082554 131.080361,75.1998281 129.841132,76.3112451 L113.982249,90.5344738 C112.748814,91.6406944 110.40136,92.5374635 108.758121,92.5374635 L82.8535223,92.5374635 C81.7469873,92.5374635 80.8499635,91.6503426 80.8499635,90.5362758 L80.8499635,88.1585853 C80.8499635,87.0533598 81.7396182,86.1573976 82.8436237,86.1573976 L109.525772,86.1573976 L116.251743,80.0125984 C116.662373,79.6374502 116.662303,79.0281731 116.253283,78.6532933 L115.021914,77.5247044 C114.612135,77.149129 113.94836,77.1561331 113.553961,77.5266062 L108.014574,82.7299496 C107.212943,83.4829497 105.92604,83.4563237 105.154003,82.6842858 L104.007139,81.5374223 C103.22892,80.7592028 103.235379,79.4938988 104.013577,78.7192401 L122.561295,60.2558737 C123.736697,59.0858179 126.040881,58.1373002 127.691969,58.1373002 L149.1752,58.1373002 Z" id="Path-805-Copy" stroke-width="2.79999995" sketch:type="MSShapeGroup" transform="translate(115.012582, 75.337382) scale(-1, 1) rotate(-270.000000) translate(-115.012582, -75.337382) "></path>
            <circle id="Oval-871" stroke-width="2.8" sketch:type="MSShapeGroup" cx="66" cy="36" r="36"></circle>
            <path d="M65.9,0.5 L65.9,71.0624695" id="Line" stroke-width="2.8" stroke-linecap="square" sketch:type="MSShapeGroup"></path>
            <path d="M65.9,0.5 C65.9,0.5 82.9,7.75714451 82.9,35.4328745 C82.9,63.1086044 65.9,71.0624695 65.9,71.0624695" id="Line-Copy-8" stroke-width="2.8" stroke-linecap="square" sketch:type="MSShapeGroup"></path>
            <path d="M48.9003906,0.5 C48.9003906,0.5 65.9003906,7.75714451 65.9003906,35.4328745 C65.9003906,63.1086044 48.9003906,71.0624695 48.9003906,71.0624695" id="Line-Copy-9" stroke-width="2.8" stroke-linecap="square" sketch:type="MSShapeGroup" transform="translate(57.400391, 35.781235) scale(-1, 1) translate(-57.400391, -35.781235) "></path>
            <path d="M101.281235,35.5 L30.7187653,35.5" id="Line-Copy-5" stroke-width="2.8" stroke-linecap="square" sketch:type="MSShapeGroup"></path>
            <path d="M96,54 L36,54" id="Line-Copy-6" stroke-width="2.8" stroke-linecap="square" sketch:type="MSShapeGroup"></path>
            <path d="M96,18 L36,18" id="Line-Copy-7" stroke-width="2.8" stroke-linecap="square" sketch:type="MSShapeGroup"></path>
        </g>
    </g>
</svg>